<svg width="102" height="33" viewBox="0 0 102 33" fill="none" xmlns="http://www.w3.org/2000/svg">
<g id="image" clip-path="url(#clip0_1_6)">
<g id="ss2089917462_1">
<path id="Vector" d="M29.3858 23.21C29.2428 22.807 29.0748 22.418 28.9158 22.056C28.6698 21.501 28.4128 20.945 28.1638 20.407L28.1438 20.364C25.9248 15.559 23.5438 10.688 21.0658 5.887L20.9608 5.683C20.7078 5.193 20.4468 4.686 20.1778 4.188C19.8598 3.557 19.4738 2.964 19.0278 2.417C18.5238 1.817 17.8958 1.334 17.1848 1.003C16.4748 0.671 15.6998 0.5 14.9158 0.5C14.1318 0.5 13.3578 0.672 12.6478 1.003C11.9378 1.335 11.3088 1.817 10.8058 2.418C10.3588 2.965 9.97383 3.559 9.65583 4.189C9.38483 4.691 9.12083 5.203 8.86583 5.698L8.76883 5.887C6.29083 10.688 3.90883 15.559 1.68983 20.364L1.65783 20.434C1.41283 20.963 1.16083 21.51 0.918832 22.056C0.758832 22.417 0.591832 22.806 0.447832 23.21C0.0368315 24.31 -0.0941685 25.495 0.0668315 26.659C0.237832 27.834 0.712832 28.945 1.44583 29.88C2.17883 30.816 3.14383 31.544 4.24583 31.993C5.07783 32.33 5.96783 32.502 6.86583 32.5C7.14783 32.5 7.42983 32.483 7.70983 32.451C8.84583 32.306 9.94083 31.937 10.9318 31.364C12.2318 30.634 13.5148 29.564 14.9168 28.035C16.3188 29.564 17.6028 30.634 18.9018 31.364C19.8928 31.937 20.9888 32.306 22.1238 32.451C22.4038 32.483 22.6858 32.5 22.9678 32.5C23.8658 32.502 24.7558 32.33 25.5878 31.993C26.6898 31.544 27.6548 30.816 28.3888 29.88C29.1218 28.945 29.5968 27.834 29.7678 26.659C29.9288 25.495 29.7978 24.31 29.3858 23.21ZM14.9168 24.877C13.1818 22.677 12.0678 20.634 11.6768 18.921C11.5168 18.279 11.4788 17.613 11.5658 16.957C11.6338 16.477 11.8108 16.018 12.0818 15.615C12.4158 15.181 12.8458 14.83 13.3368 14.589C13.8288 14.347 14.3698 14.222 14.9178 14.222C15.4658 14.222 16.0058 14.348 16.4978 14.589C16.9888 14.831 17.4188 15.182 17.7528 15.615C18.0238 16.018 18.2008 16.477 18.2688 16.958C18.3558 17.614 18.3178 18.28 18.1568 18.922C17.7658 20.635 16.6528 22.677 14.9168 24.877ZM27.7408 26.369C27.6208 27.191 27.2888 27.967 26.7758 28.622C26.2638 29.276 25.5888 29.785 24.8178 30.099C24.0388 30.411 23.1938 30.522 22.3608 30.42C21.4948 30.309 20.6598 30.024 19.9068 29.582C18.7498 28.932 17.5788 27.935 16.2608 26.471C18.3588 23.885 19.6688 21.5 20.1538 19.377C20.3718 18.484 20.4198 17.558 20.2928 16.647C20.1788 15.863 19.8878 15.115 19.4418 14.459C18.9188 13.752 18.2378 13.177 17.4518 12.78C16.6658 12.384 15.7978 12.178 14.9168 12.178C14.0368 12.178 13.1688 12.384 12.3828 12.78C11.5968 13.176 10.9148 13.751 10.3928 14.459C9.94683 15.114 9.65583 15.862 9.54083 16.646C9.41483 17.557 9.46183 18.482 9.67983 19.375C10.1648 21.499 11.4748 23.884 13.5728 26.471C12.2548 27.935 11.0838 28.932 9.92783 29.582C9.17483 30.024 8.33983 30.309 7.47383 30.42C6.64083 30.522 5.79483 30.411 5.01583 30.099C4.24583 29.785 3.57083 29.276 3.05783 28.622C2.54583 27.967 2.21283 27.191 2.09383 26.369C1.97883 25.533 2.07683 24.682 2.37783 23.895C2.49283 23.573 2.62683 23.257 2.79283 22.882C3.02683 22.351 3.27683 21.811 3.51783 21.29L3.54983 21.22C5.75583 16.442 8.12483 11.598 10.5888 6.823L10.6868 6.633C10.9378 6.146 11.1978 5.643 11.4598 5.156C11.7098 4.655 12.0128 4.182 12.3638 3.744C12.6748 3.369 13.0648 3.067 13.5058 2.859C13.9468 2.652 14.4288 2.544 14.9168 2.544C15.4048 2.544 15.8868 2.652 16.3278 2.859C16.7688 3.067 17.1588 3.369 17.4698 3.744C17.8208 4.181 18.1238 4.654 18.3738 5.155C18.6338 5.637 18.8908 6.136 19.1398 6.619L19.2448 6.823C21.7098 11.598 24.0778 16.441 26.2848 21.22L26.3048 21.263C26.5498 21.794 26.8028 22.342 27.0418 22.882C27.2078 23.258 27.3418 23.574 27.4568 23.894C27.7578 24.682 27.8548 25.533 27.7408 26.369Z" fill="#FF385C"/>
<path id="Vector_2" d="M41.685 24.62C40.886 24.62 40.151 24.459 39.479 24.139C38.808 23.819 38.233 23.37 37.721 22.794C37.21 22.217 36.826 21.545 36.539 20.808C36.251 20.039 36.123 19.206 36.123 18.309C36.123 17.412 36.283 16.548 36.571 15.779C36.858 15.01 37.274 14.337 37.785 13.729C38.297 13.152 38.904 12.672 39.607 12.351C40.31 12.031 41.045 11.871 41.877 11.871C42.676 11.871 43.379 12.031 44.018 12.383C44.657 12.704 45.169 13.184 45.584 13.793L45.68 12.223H48.621V24.299H45.68L45.584 22.538C45.169 23.178 44.625 23.691 43.922 24.075C43.283 24.427 42.516 24.62 41.685 24.62ZM42.452 21.737C43.027 21.737 43.539 21.576 44.018 21.288C44.466 20.968 44.817 20.551 45.105 20.039C45.361 19.526 45.488 18.918 45.488 18.245C45.488 17.572 45.361 16.964 45.105 16.451C44.849 15.939 44.466 15.522 44.018 15.202C43.571 14.882 43.027 14.754 42.452 14.754C41.876 14.754 41.365 14.914 40.886 15.202C40.438 15.522 40.087 15.939 39.799 16.451C39.543 16.964 39.415 17.572 39.415 18.245C39.415 18.918 39.543 19.526 39.799 20.039C40.055 20.551 40.438 20.968 40.886 21.288C41.365 21.576 41.876 21.737 42.452 21.737ZM53.639 8.956C53.639 9.308 53.575 9.629 53.415 9.885C53.256 10.141 53.032 10.365 52.744 10.525C52.457 10.686 52.137 10.75 51.817 10.75C51.498 10.75 51.178 10.686 50.89 10.525C50.603 10.365 50.379 10.141 50.219 9.885C50.059 9.597 49.995 9.308 49.995 8.956C49.995 8.604 50.059 8.283 50.219 8.027C50.379 7.739 50.603 7.546 50.89 7.386C51.178 7.226 51.498 7.162 51.817 7.162C52.137 7.162 52.457 7.226 52.744 7.386C53.032 7.546 53.256 7.771 53.415 8.027C53.543 8.283 53.639 8.572 53.639 8.956ZM50.219 24.267V12.191H53.415V24.267H50.219ZM61.95 15.362V15.394C61.79 15.33 61.598 15.298 61.438 15.266C61.247 15.234 61.087 15.234 60.895 15.234C60 15.234 59.329 15.49 58.881 16.035C58.402 16.579 58.178 17.348 58.178 18.341V24.267H54.982V12.191H57.922L58.018 14.017C58.338 13.376 58.721 12.896 59.265 12.543C59.776 12.191 60.383 12.031 61.087 12.031C61.31 12.031 61.534 12.063 61.726 12.095C61.822 12.127 61.886 12.127 61.95 12.159V15.362ZM63.228 24.267V7.226H66.425V13.729C66.872 13.152 67.384 12.704 68.023 12.351C68.662 12.031 69.365 11.839 70.165 11.839C70.964 11.839 71.699 11.999 72.37 12.319C73.041 12.64 73.617 13.088 74.128 13.665C74.639 14.241 75.023 14.914 75.311 15.651C75.598 16.419 75.726 17.252 75.726 18.149C75.726 19.046 75.566 19.911 75.279 20.68C74.991 21.448 74.576 22.121 74.064 22.73C73.553 23.306 72.945 23.787 72.242 24.107C71.539 24.427 70.804 24.588 69.973 24.588C69.174 24.588 68.47 24.427 67.831 24.075C67.192 23.755 66.68 23.274 66.265 22.666L66.169 24.235L63.228 24.267ZM69.397 21.737C69.973 21.737 70.484 21.576 70.964 21.288C71.411 20.968 71.763 20.551 72.05 20.039C72.306 19.526 72.434 18.918 72.434 18.245C72.434 17.572 72.306 16.964 72.05 16.451C71.763 15.939 71.411 15.522 70.964 15.202C70.516 14.882 69.973 14.754 69.397 14.754C68.822 14.754 68.311 14.914 67.831 15.202C67.384 15.522 67.032 15.939 66.744 16.451C66.489 16.964 66.361 17.572 66.361 18.245C66.361 18.918 66.489 19.526 66.744 20.039C67 20.551 67.384 20.968 67.831 21.288C68.311 21.576 68.822 21.737 69.397 21.737ZM76.941 24.267V12.191H79.881L79.977 13.761C80.329 13.184 80.808 12.736 81.416 12.383C82.023 12.031 82.726 11.871 83.525 11.871C84.42 11.871 85.187 12.095 85.827 12.512C86.498 12.928 87.009 13.537 87.361 14.305C87.713 15.074 87.904 16.003 87.904 17.06V24.299H84.708V17.476C84.708 16.644 84.516 15.971 84.133 15.49C83.749 15.01 83.238 14.754 82.566 14.754C82.087 14.754 81.671 14.85 81.288 15.074C80.936 15.298 80.649 15.587 80.425 16.003C80.201 16.387 80.105 16.868 80.105 17.348V24.267H76.941ZM89.503 24.267V7.226H92.699V13.729C93.146 13.152 93.658 12.704 94.297 12.351C94.936 12.031 95.64 11.839 96.439 11.839C97.238 11.839 97.973 11.999 98.644 12.319C99.315 12.64 99.891 13.088 100.402 13.665C100.914 14.241 101.297 14.914 101.585 15.651C101.873 16.419 102 17.252 102 18.149C102 19.046 101.841 19.911 101.553 20.68C101.265 21.448 100.85 22.121 100.338 22.73C99.827 23.306 99.22 23.787 98.516 24.107C97.813 24.427 97.078 24.588 96.247 24.588C95.448 24.588 94.745 24.427 94.105 24.075C93.466 23.755 92.955 23.274 92.539 22.666L92.443 24.235L89.503 24.267ZM95.703 21.737C96.279 21.737 96.79 21.576 97.27 21.288C97.717 20.968 98.069 20.551 98.356 20.039C98.612 19.526 98.74 18.918 98.74 18.245C98.74 17.572 98.612 16.964 98.356 16.451C98.101 15.939 97.717 15.522 97.27 15.202C96.822 14.882 96.279 14.754 95.703 14.754C95.128 14.754 94.617 14.914 94.137 15.202C93.69 15.522 93.338 15.939 93.05 16.451C92.763 16.964 92.667 17.572 92.667 18.245C92.667 18.918 92.795 19.526 93.05 20.039C93.306 20.551 93.69 20.968 94.137 21.288C94.617 21.576 95.096 21.737 95.703 21.737Z" fill="#FF385C"/>
</g>
</g>
<defs>
<clipPath id="clip0_1_6">
<rect width="102" height="32" fill="white" transform="translate(0 0.5)"/>
</clipPath>
</defs>
</svg>
