<svg width="19" height="21" viewBox="0 0 19 21" fill="none" xmlns="http://www.w3.org/2000/svg">
<g id="svg-264235133_850">
<path id="Vector" d="M15.4375 1.86096C15.7653 1.86096 16.0313 2.11573 16.0313 2.43063V6.98794C16.0313 7.30284 15.7653 7.5576 15.4375 7.5576H3.5625C3.23475 7.5576 2.96875 7.30284 2.96875 6.98794V2.43063C2.96875 2.11573 3.23475 1.86096 3.5625 1.86096H5.34375C5.6715 1.86096 5.9375 2.11573 5.9375 2.43063V3.00029C5.9375 3.62929 6.4695 4.13962 7.125 4.13962C7.7805 4.13962 8.3125 3.62929 8.3125 3.00029V2.43063C8.3125 2.11573 8.5785 1.86096 8.90625 1.86096H10.0938C10.4215 1.86096 10.6875 2.11573 10.6875 2.43063V3.00029C10.6875 3.62929 11.2195 4.13962 11.875 4.13962C12.5305 4.13962 13.0625 3.62929 13.0625 3.00029V2.43063C13.0625 2.11573 13.3285 1.86096 13.6563 1.86096H15.4375ZM4.15625 7.5576L2.96875 18.9509H16.0313L14.8438 7.5576H4.15625Z" stroke="black" stroke-width="1.18719" stroke-linecap="round" stroke-linejoin="round"/>
<path id="Vector_2" d="M11.2813 18.9511H7.71875V14.9632C7.71875 14.0193 8.51596 13.2542 9.5 13.2542C10.484 13.2542 11.2813 14.0193 11.2813 14.9632V18.9511Z" stroke="black" stroke-width="1.18719" stroke-linecap="round" stroke-linejoin="round"/>
<path id="Vector_3" d="M0.59375 18.9508H18.4063" stroke="black" stroke-width="1.18719" stroke-linecap="round" stroke-linejoin="round"/>
</g>
</svg>
