<svg width="20" height="21" viewBox="0 0 20 21" fill="none" xmlns="http://www.w3.org/2000/svg">
<g id="svg-1127310806_1209" clip-path="url(#clip0_1_365)">
<path id="Vector" d="M10.655 14.7683L13.0883 15.0308M10.245 10.9517L13.4917 11.3025" stroke="black" stroke-width="1.25" stroke-linecap="round" stroke-linejoin="round"/>
<path id="Vector_2" d="M7.29918 1.15911C7.05408 1.18509 6.81651 1.25913 6.60005 1.377C6.3836 1.49488 6.1925 1.65427 6.03771 1.84606C5.88291 2.03786 5.76744 2.25829 5.69791 2.49475C5.62839 2.73121 5.60616 2.97906 5.63251 3.22411L7.31418 18.7591C7.34983 19.0886 7.51488 19.3905 7.77304 19.5983C8.0312 19.8061 8.36133 19.903 8.69084 19.8674L9.93418 19.7333C10.2637 19.6976 10.5655 19.5326 10.7734 19.2744C10.9812 19.0163 11.078 18.6861 11.0425 18.3566L9.36418 2.82161C9.3107 2.32736 9.06312 1.87458 8.67588 1.56282C8.28865 1.25106 7.79345 1.10585 7.29918 1.15911Z" stroke="black" stroke-width="1.25" stroke-linecap="round" stroke-linejoin="round"/>
<path id="Vector_3" d="M10 19.7242L10.0658 19.7334L11.3092 19.8675C11.6387 19.903 11.9688 19.8062 12.227 19.5984C12.4851 19.3906 12.6502 19.0887 12.6858 18.7592L14.3642 3.2242C14.4168 2.73014 14.2713 2.23538 13.9594 1.84858C13.6476 1.46177 13.195 1.21456 12.701 1.16123C12.207 1.1079 11.712 1.25282 11.3248 1.56415C10.9376 1.87549 10.6898 2.32778 10.6358 2.8217L10 8.7067M10.64 14.6284L6.91167 15.0309M10.2367 10.9L6.50833 11.3025M1.875 6.12503V19.875M0.625 17.375H3.125" stroke="black" stroke-width="1.25" stroke-linecap="round" stroke-linejoin="round"/>
<path id="Vector_4" d="M1.875 1.125C1.54348 1.125 1.22554 1.2567 0.991117 1.49112C0.756696 1.72554 0.625 2.04348 0.625 2.375V6.125H3.125V2.375C3.125 2.04348 2.9933 1.72554 2.75888 1.49112C2.52446 1.2567 2.20652 1.125 1.875 1.125Z" stroke="black" stroke-width="1.25" stroke-linecap="round" stroke-linejoin="round"/>
<path id="Vector_5" d="M18.125 6.125V19.875M16.875 17.375H19.375" stroke="black" stroke-width="1.25" stroke-linecap="round" stroke-linejoin="round"/>
<path id="Vector_6" d="M18.125 1.125C17.7935 1.125 17.4755 1.2567 17.2411 1.49112C17.0067 1.72554 16.875 2.04348 16.875 2.375V6.125H19.375V2.375C19.375 2.04348 19.2433 1.72554 19.0089 1.49112C18.7745 1.2567 18.4565 1.125 18.125 1.125Z" stroke="black" stroke-width="1.25" stroke-linecap="round" stroke-linejoin="round"/>
</g>
<defs>
<clipPath id="clip0_1_365">
<rect width="20" height="20" fill="white" transform="translate(0 0.5)"/>
</clipPath>
</defs>
</svg>
