<svg width="20" height="21" viewBox="0 0 20 21" fill="none" xmlns="http://www.w3.org/2000/svg">
<path d="M13.75 18.2083H6.25V10.0833L9.48 5.23835C9.53708 5.15275 9.6144 5.08256 9.70511 5.03402C9.79582 4.98548 9.89712 4.96008 10 4.96008C10.1029 4.96008 10.2042 4.98548 10.2949 5.03402C10.3856 5.08256 10.4629 5.15275 10.52 5.23835L13.75 10.0833V18.2083Z" stroke="black" stroke-width="1.25" stroke-linecap="round" stroke-linejoin="round"/>
<path d="M10 10.3958C10.0829 10.3958 10.1624 10.4287 10.221 10.4873C10.2796 10.5459 10.3125 10.6254 10.3125 10.7083C10.3125 10.7912 10.2796 10.8707 10.221 10.9293C10.1624 10.9879 10.0829 11.0208 10 11.0208C9.91712 11.0208 9.83763 10.9879 9.77903 10.9293C9.72042 10.8707 9.6875 10.7912 9.6875 10.7083C9.6875 10.6254 9.72042 10.5459 9.77903 10.4873C9.83763 10.4287 9.91712 10.3958 10 10.3958Z" stroke="black" stroke-width="1.25" stroke-linecap="round" stroke-linejoin="round"/>
<path d="M11.25 18.2083H8.75V15.7083C8.75 15.3768 8.8817 15.0589 9.11612 14.8244C9.35054 14.59 9.66848 14.4583 10 14.4583C10.3315 14.4583 10.6495 14.59 10.8839 14.8244C11.1183 15.0589 11.25 15.3768 11.25 15.7083V18.2083ZM1.25 6.95831H6.25V18.2083H2.08333C1.86232 18.2083 1.65036 18.1205 1.49408 17.9642C1.3378 17.808 1.25 17.596 1.25 17.375V6.95831ZM13.75 6.95831H18.75V17.375C18.75 17.596 18.6622 17.808 18.5059 17.9642C18.3496 18.1205 18.1377 18.2083 17.9167 18.2083H13.75V6.95831Z" stroke="black" stroke-width="1.25" stroke-linecap="round" stroke-linejoin="round"/>
<path d="M1.875 6.95831L3.75 3.20831L5.625 6.95831M14.375 6.95831L16.25 3.20831L18.125 6.95831M3.75 10.7083V11.9583M16.25 10.7083V11.9583M1.25 11.9583H6.25M13.75 11.9583H18.75M3.75 14.4583V15.7083M16.25 14.4583V15.7083" stroke="black" stroke-width="1.25" stroke-linecap="round" stroke-linejoin="round"/>
</svg>
