<svg width="19" height="21" viewBox="0 0 19 21" fill="none" xmlns="http://www.w3.org/2000/svg">
<g id="svg-462846524_1004" clip-path="url(#clip0_1_301)">
<path id="Vector" d="M5.83774 1.35772C5.78352 1.27644 5.71006 1.2098 5.62389 1.16371C5.53771 1.11762 5.44148 1.09351 5.34374 1.09351C5.24601 1.09351 5.14978 1.11762 5.0636 1.16371C4.97743 1.2098 4.90397 1.27644 4.84974 1.35772L1.78124 6.43437H3.56249L1.26666 9.70064C1.21512 9.79082 1.18816 9.89293 1.18848 9.99679C1.1888 10.1006 1.21638 10.2026 1.26846 10.2925C1.32055 10.3823 1.39532 10.457 1.48531 10.5089C1.57529 10.5608 1.67733 10.5882 1.78124 10.5884H8.90624C9.01022 10.5884 9.11237 10.5611 9.20246 10.5092C9.29255 10.4573 9.36744 10.3827 9.41962 10.2928C9.4718 10.2029 9.49945 10.1009 9.4998 9.99699C9.50015 9.89307 9.47319 9.79087 9.42162 9.70064L7.12579 6.43437H8.90704L5.83774 1.35772Z" stroke="black" stroke-width="1.18719" stroke-linecap="round" stroke-linejoin="round"/>
<path id="Vector_2" d="M5.34375 10.5878V14.2133" stroke="black" stroke-width="1.18719" stroke-linecap="round" stroke-linejoin="round"/>
<path id="Vector_3" d="M15.2491 1.30946C15.2047 1.24303 15.1446 1.18858 15.0741 1.15093C15.0036 1.11327 14.9249 1.09357 14.845 1.09357C14.765 1.09357 14.6863 1.11327 14.6158 1.15093C14.5453 1.18858 14.4852 1.24303 14.4408 1.30946L11.9297 5.2475H13.3871L11.3462 8.08175C11.3038 8.15557 11.2816 8.23924 11.2819 8.32435C11.2821 8.40946 11.3047 8.49302 11.3475 8.56662C11.3902 8.64022 11.4516 8.70129 11.5255 8.74368C11.5993 8.78607 11.683 8.80829 11.7682 8.80811H17.9194C18.0046 8.80829 18.0883 8.78607 18.1621 8.74368C18.2359 8.70129 18.2973 8.64022 18.3401 8.56662C18.3828 8.49302 18.4055 8.40946 18.4057 8.32435C18.4059 8.23924 18.3837 8.15557 18.3414 8.08175L16.302 5.2475H17.7595L15.2491 1.30946Z" stroke="black" stroke-width="1.18719" stroke-linecap="round" stroke-linejoin="round"/>
<path id="Vector_4" d="M14.8445 8.80762V12.0003M0.637268 14.742C2.87418 13.965 5.30576 13.9517 7.55108 14.704C9.79641 15.4563 11.7286 16.9317 13.0451 18.8992" stroke="black" stroke-width="1.18719" stroke-linecap="round" stroke-linejoin="round"/>
<path id="Vector_5" d="M8.68378 15.1517C10.9934 12.9787 14.0468 11.7706 17.2187 11.7746C17.6193 11.7746 18.0152 11.7928 18.4062 11.83" stroke="black" stroke-width="1.18719" stroke-linecap="round" stroke-linejoin="round"/>
</g>
<defs>
<clipPath id="clip0_1_301">
<rect width="19" height="19.78" fill="white" transform="translate(0 0.5)"/>
</clipPath>
</defs>
</svg>
