<svg width="19" height="21" viewBox="0 0 19 21" fill="none" xmlns="http://www.w3.org/2000/svg">
<g clip-path="url(#clip0_1_376)">
<path d="M14.725 14.3832C14.6711 14.314 14.602 14.258 14.5231 14.2195C14.4442 14.1809 14.3576 14.1609 14.2698 14.1609H4.73418C4.64637 14.1609 4.55973 14.1809 4.48082 14.2194C4.40191 14.2579 4.33282 14.3139 4.27879 14.3831C4.22476 14.4523 4.18722 14.5328 4.169 14.6187C4.15079 14.7045 4.15239 14.7934 4.17368 14.8786L4.71043 17.0244C4.845 17.5626 5.15575 18.0404 5.59328 18.3818C6.0308 18.7232 6.56996 18.9085 7.12501 18.9084H11.875C13.0166 18.9084 14.0125 18.1314 14.2888 17.0244L14.8256 14.8786C14.8477 14.7938 14.8501 14.7051 14.8327 14.6192C14.8153 14.5334 14.7784 14.4527 14.725 14.3832Z" stroke="black" stroke-width="1.18719" stroke-linecap="round" stroke-linejoin="round"/>
<path d="M9.5 1.10608V2.88639M1.1875 4.98478L1.78125 6.01261M3.5625 4.98478L2.96875 6.01261M6.14096 2.29295L7.26117 3.67763M12.859 2.29295L11.7388 3.67763M17.8125 6.17165L17.2188 7.19948M15.4375 6.17165L16.0313 7.19948" stroke="black" stroke-width="1.18719" stroke-linecap="round" stroke-linejoin="round"/>
<path d="M16.625 7.0404C16.3101 7.0404 16.008 7.16545 15.7853 7.38803C15.5626 7.61061 15.4375 7.9125 15.4375 8.22728C15.4375 8.54205 15.3124 8.84394 15.0897 9.06652C14.867 9.2891 14.5649 9.41415 14.25 9.41415H13.0625V6.44697C13.0625 5.50263 12.6872 4.59698 12.0191 3.92923C11.351 3.26149 10.4448 2.88635 9.5 2.88635C8.55517 2.88635 7.64903 3.26149 6.98093 3.92923C6.31283 4.59698 5.9375 5.50263 5.9375 6.44697V8.22728H4.75C4.43506 8.22728 4.13301 8.10223 3.91031 7.87965C3.68761 7.65707 3.5625 7.35518 3.5625 7.0404C3.5625 6.72563 3.43739 6.42374 3.21469 6.20116C2.99199 5.97858 2.68994 5.85353 2.375 5.85353C2.06006 5.85353 1.75801 5.97858 1.53531 6.20116C1.31261 6.42374 1.1875 6.72563 1.1875 7.0404C1.1875 7.98474 1.56283 8.8904 2.23093 9.55814C2.89903 10.2259 3.80517 10.601 4.75 10.601H5.9375V14.1616H13.0625V11.7879H14.25C15.1948 11.7879 16.101 11.4128 16.7691 10.745C17.4372 10.0773 17.8125 9.17161 17.8125 8.22728C17.8125 7.9125 17.6874 7.61061 17.4647 7.38803C17.242 7.16545 16.9399 7.0404 16.625 7.0404Z" stroke="black" stroke-width="1.18719" stroke-linecap="round" stroke-linejoin="round"/>
</g>
<defs>
<clipPath id="clip0_1_376">
<rect width="19" height="19.78" fill="white" transform="translate(0 0.5)"/>
</clipPath>
</defs>
</svg>
