<svg width="20" height="21" viewBox="0 0 20 21" fill="none" xmlns="http://www.w3.org/2000/svg">
<path d="M0.656677 17.6425H19.375" stroke="black" stroke-width="1.25" stroke-linecap="round" stroke-linejoin="round"/>
<path d="M8.1442 17.6425H1.90503V9.53168L8.1442 8.28418V17.6425ZM8.1442 17.6425H18.1275V8.28418L8.1442 3.91751V17.6425Z" stroke="black" stroke-width="1.25" stroke-linecap="round" stroke-linejoin="round"/>
<path d="M10.9517 8.28417C10.9517 8.24324 10.9436 8.20271 10.928 8.1649C10.9123 8.12709 10.8893 8.09273 10.8604 8.06379C10.8315 8.03485 10.7971 8.01189 10.7593 7.99623C10.7215 7.98057 10.6809 7.9725 10.64 7.9725C10.4675 7.9725 10.3275 8.11167 10.3275 8.28417C10.3275 8.36705 10.3604 8.44654 10.419 8.50514C10.4776 8.56375 10.5571 8.59667 10.64 8.59667" stroke="black" stroke-width="1.25" stroke-linecap="round" stroke-linejoin="round"/>
<path d="M10.9517 8.28418C10.9518 8.32518 10.9438 8.3658 10.9282 8.40371C10.9126 8.44161 10.8896 8.47607 10.8607 8.5051C10.8317 8.53413 10.7973 8.55716 10.7595 8.57288C10.7216 8.58859 10.681 8.59668 10.64 8.59668" stroke="black" stroke-width="1.25" stroke-linecap="round" stroke-linejoin="round"/>
<path d="M15.6317 17.6425H10.64V13.8992C10.64 13.5676 10.7717 13.2497 11.0061 13.0153C11.2406 12.7809 11.5585 12.6492 11.89 12.6492H14.39C14.7215 12.6492 15.0395 12.7809 15.2739 13.0153C15.5083 13.2497 15.64 13.5676 15.64 13.8992L15.6317 17.6425Z" stroke="black" stroke-width="1.25" stroke-linecap="round" stroke-linejoin="round"/>
<path d="M0.625 9.78835L8.14417 8.28418M6.865 3.35751L19.3717 8.82835M15.6317 7.18501V3.91751H18.1275V8.28418" stroke="black" stroke-width="1.25" stroke-linecap="round" stroke-linejoin="round"/>
</svg>
