<svg width="20" height="21" viewBox="0 0 20 21" fill="none" xmlns="http://www.w3.org/2000/svg">
<g clip-path="url(#clip0_1_274)">
<path d="M14.375 5.70834C14.9552 5.70834 15.5116 5.47788 15.9218 5.06764C16.332 4.6574 16.5625 4.101 16.5625 3.52084C16.5625 2.94068 16.332 2.38428 15.9218 1.97405C15.5116 1.56381 14.9552 1.33334 14.375 1.33334C13.7948 1.33334 13.2384 1.56381 12.8282 1.97405C12.418 2.38428 12.1875 2.94068 12.1875 3.52084C12.1875 4.101 12.418 4.6574 12.8282 5.06764C13.2384 5.47788 13.7948 5.70834 14.375 5.70834Z" stroke="black" stroke-width="1.25" stroke-linecap="round" stroke-linejoin="round"/>
<path d="M13.7117 16.3275C13.7367 16.2275 13.75 16.1242 13.75 16.0208V13.565C13.7505 13.1529 13.6491 12.747 13.4549 12.3836C13.2607 12.0201 12.9796 11.7103 12.6367 11.4817L12.1617 11.165L12.745 9.70001C13.2117 9.91918 13.6617 10.1725 14.0917 10.4583L17.425 12.6825C17.7013 12.861 18.0367 12.9235 18.3587 12.8566C18.6808 12.7896 18.9635 12.5986 19.1458 12.3249C19.3282 12.0511 19.3954 11.7166 19.333 11.3937C19.2706 11.0707 19.0837 10.7853 18.8125 10.5992L15.4792 8.37501C13.8117 7.26571 11.9096 6.55829 9.92249 6.30835C9.38791 6.24177 8.87399 6.06064 8.4158 5.77732C7.9576 5.49401 7.56592 5.11518 7.26749 4.66668C7.17836 4.52559 7.06192 4.40376 6.92501 4.30834C6.78811 4.21291 6.6335 4.14583 6.47029 4.11104C6.30707 4.07624 6.13855 4.07443 5.97463 4.10572C5.81071 4.13701 5.6547 4.20076 5.51578 4.29323C5.37686 4.3857 5.25783 4.50501 5.16569 4.64415C5.07356 4.78329 5.01018 4.93945 4.97928 5.10345C4.94838 5.26744 4.95059 5.43596 4.98578 5.59909C5.02096 5.76222 5.08841 5.91667 5.18416 6.05335C6.02132 7.31488 7.2887 8.2289 8.74999 8.62501L7.74166 9.63668C7.43708 9.94226 7.21647 10.3212 7.10114 10.737C6.98582 11.1527 6.97968 11.5912 7.08333 12.01L7.33333 13.0192L5.49999 14.3958C5.32765 14.5257 5.19186 14.698 5.10583 14.8958" stroke="black" stroke-width="1.25" stroke-linecap="round" stroke-linejoin="round"/>
<path d="M8.295 15.4242L8.835 15.02C9.20514 14.7426 9.49107 14.368 9.66099 13.9379C9.83092 13.5077 9.87817 13.0388 9.7975 12.5833C9.83917 12.62 11.25 13.5667 11.25 13.5667V15.9167M0.625 16.6458L19.375 19.7708M1.78083 16.8383L1.0775 18.9483C1.03941 19.0637 1.03572 19.1877 1.0669 19.3051C1.09807 19.4226 1.16276 19.5284 1.25307 19.6097C1.34337 19.691 1.45539 19.7442 1.57545 19.7629C1.69551 19.7816 1.81841 19.765 1.92917 19.715L6.52 17.6317" stroke="black" stroke-width="1.25" stroke-linecap="round" stroke-linejoin="round"/>
</g>
<defs>
<clipPath id="clip0_1_274">
<rect width="20" height="20" fill="white" transform="translate(0 0.5)"/>
</clipPath>
</defs>
</svg>
