<svg width="20" height="21" viewBox="0 0 20 21" fill="none" xmlns="http://www.w3.org/2000/svg">
<g clip-path="url(#clip0_1_350)">
<path d="M11.25 1.125C10.7668 1.32095 10.3657 1.67703 10.1139 2.13355C9.86202 2.59007 9.77475 3.11929 9.86667 3.6325" stroke="black" stroke-width="1.25" stroke-linecap="round" stroke-linejoin="round"/>
<path d="M4.375 9.875C4.87228 9.875 5.34919 9.67746 5.70082 9.32582C6.05246 8.97419 6.25 8.49728 6.25 8C6.25 7.50272 6.05246 7.02581 5.70082 6.67417C5.34919 6.32254 4.87228 6.125 4.375 6.125C3.87772 6.125 3.40081 6.32254 3.04917 6.67417C2.69754 7.02581 2.5 7.50272 2.5 8C2.5 8.49728 2.69754 8.97419 3.04917 9.32582C3.40081 9.67746 3.87772 9.875 4.375 9.875ZM10 9.875C10.4973 9.875 10.9742 9.67746 11.3258 9.32582C11.6775 8.97419 11.875 8.49728 11.875 8C11.875 7.50272 11.6775 7.02581 11.3258 6.67417C10.9742 6.32254 10.4973 6.125 10 6.125C9.50272 6.125 9.02581 6.32254 8.67417 6.67417C8.32254 7.02581 8.125 7.50272 8.125 8C8.125 8.49728 8.32254 8.97419 8.67417 9.32582C9.02581 9.67746 9.50272 9.875 10 9.875ZM10 19.875C10.4973 19.875 10.9742 19.6775 11.3258 19.3258C11.6775 18.9742 11.875 18.4973 11.875 18C11.875 17.5027 11.6775 17.0258 11.3258 16.6742C10.9742 16.3225 10.4973 16.125 10 16.125C9.50272 16.125 9.02581 16.3225 8.67417 16.6742C8.32254 17.0258 8.125 17.5027 8.125 18C8.125 18.4973 8.32254 18.9742 8.67417 19.3258C9.02581 19.6775 9.50272 19.875 10 19.875ZM6.875 14.875C7.37228 14.875 7.84919 14.6775 8.20082 14.3258C8.55246 13.9742 8.75 13.4973 8.75 13C8.75 12.5027 8.55246 12.0258 8.20082 11.6742C7.84919 11.3225 7.37228 11.125 6.875 11.125C6.37772 11.125 5.90081 11.3225 5.54917 11.6742C5.19754 12.0258 5 12.5027 5 13C5 13.4973 5.19754 13.9742 5.54917 14.3258C5.90081 14.6775 6.37772 14.875 6.875 14.875ZM13.125 14.875C13.6223 14.875 14.0992 14.6775 14.4508 14.3258C14.8025 13.9742 15 13.4973 15 13C15 12.5027 14.8025 12.0258 14.4508 11.6742C14.0992 11.3225 13.6223 11.125 13.125 11.125C12.6277 11.125 12.1508 11.3225 11.7992 11.6742C11.4475 12.0258 11.25 12.5027 11.25 13C11.25 13.4973 11.4475 13.9742 11.7992 14.3258C12.1508 14.6775 12.6277 14.875 13.125 14.875ZM15.625 9.875C16.1223 9.875 16.5992 9.67746 16.9508 9.32582C17.3025 8.97419 17.5 8.49728 17.5 8C17.5 7.50272 17.3025 7.02581 16.9508 6.67417C16.5992 6.32254 16.1223 6.125 15.625 6.125C15.1277 6.125 14.6508 6.32254 14.2992 6.67417C13.9475 7.02581 13.75 7.50272 13.75 8C13.75 8.49728 13.9475 8.97419 14.2992 9.32582C14.6508 9.67746 15.1277 9.875 15.625 9.875Z" stroke="black" stroke-width="1.25" stroke-linecap="round" stroke-linejoin="round"/>
<path d="M8.125 1.125H13.125" stroke="black" stroke-width="1.25" stroke-linecap="round" stroke-linejoin="round"/>
</g>
<defs>
<clipPath id="clip0_1_350">
<rect width="20" height="20" fill="white" transform="translate(0 0.5)"/>
</clipPath>
</defs>
</svg>
