<svg width="19" height="21" viewBox="0 0 19 21" fill="none" xmlns="http://www.w3.org/2000/svg">
<path d="M0.59375 10.9756L2.96875 5.27895L9.5 1.86096L16.0313 5.27895L18.4063 10.9756M2.96875 18.9509V10.4059M16.0313 18.9509V10.4059M0.59375 18.9509H18.4063M5.9375 13.2542V18.9509L13.0625 13.2542M5.9375 13.2542H13.0625M5.9375 13.2542L13.0625 18.9509V13.2542" stroke="black" stroke-width="1.18719" stroke-linecap="round" stroke-linejoin="round"/>
<path d="M9.5 8.69706C10.484 8.69706 11.2813 7.93192 11.2813 6.98797C11.2813 6.04401 10.484 5.27887 9.5 5.27887C8.51596 5.27887 7.71875 6.04401 7.71875 6.98797C7.71875 7.93192 8.51596 8.69706 9.5 8.69706Z" stroke="black" stroke-width="1.18719" stroke-linecap="round" stroke-linejoin="round"/>
</svg>
