<svg width="20" height="21" viewBox="0 0 20 21" fill="none" xmlns="http://www.w3.org/2000/svg">
<g id="svg1840104705_899" clip-path="url(#clip0_1_342)">
<path id="Vector" d="M19.375 18.625C19.375 16.5542 15.1775 14.875 10 14.875C4.8225 14.875 0.625 16.5542 0.625 18.625V19.875H19.375V18.625Z" stroke="black" stroke-width="1.25" stroke-linecap="round" stroke-linejoin="round"/>
<path id="Vector_2" d="M13.0283 7.56419L12.3525 14.9942M7.07251 15.0617L11.445 7.04586M11.445 7.04586L18.3417 9.30336C18.4458 9.33858 18.5574 9.34571 18.6652 9.32401C18.773 9.30231 18.8732 9.25256 18.9556 9.17978C19.038 9.107 19.0998 9.01376 19.1346 8.90948C19.1695 8.80521 19.1762 8.69358 19.1542 8.58586C19.0547 7.7888 18.7141 7.04116 18.1779 6.44305C17.6418 5.84494 16.9357 5.4249 16.1542 5.23919C15.4968 5.0983 14.8196 5.07516 14.1542 5.17086M11.445 7.04586L5.16668 8.75003C5.06364 8.7784 4.95505 8.77988 4.85128 8.75433C4.74751 8.72877 4.65203 8.67704 4.57395 8.60406C4.49588 8.53108 4.43782 8.43931 4.40532 8.3375C4.37283 8.23568 4.36698 8.12724 4.38835 8.02253C4.47985 7.21374 4.81816 6.45274 5.35728 5.84295C5.89641 5.23315 6.61021 4.80413 7.40168 4.61419C8.25819 4.42052 9.14944 4.44314 9.99501 4.68003" stroke="black" stroke-width="1.25" stroke-linecap="round" stroke-linejoin="round"/>
<path id="Vector_3" d="M15.4817 5.13918L18.065 2.54251C18.1369 2.47194 18.1905 2.38498 18.2214 2.28909C18.2522 2.19321 18.2594 2.09128 18.2422 1.99204C18.225 1.8928 18.1839 1.79921 18.1226 1.71932C18.0612 1.63943 17.9814 1.57561 17.89 1.53335C17.2134 1.20404 16.4585 1.06939 15.7097 1.14444C14.961 1.21949 14.2478 1.50129 13.65 1.95835C13.1199 2.38411 12.7449 2.97286 12.5834 3.63335C12.2473 3.03465 11.7707 2.52664 11.1947 2.1531C10.6186 1.77957 9.96039 1.55172 9.27668 1.48918C8.57502 1.48835 7.87418 1.55501 7.18502 1.68835C7.07695 1.7111 6.97688 1.76216 6.89502 1.83629C6.81317 1.91042 6.75248 2.00497 6.71917 2.11026C6.68585 2.21554 6.6811 2.32779 6.70541 2.43551C6.72972 2.54324 6.78221 2.64257 6.85752 2.72335L8.48252 4.48668" stroke="black" stroke-width="1.25" stroke-linecap="round" stroke-linejoin="round"/>
</g>
<defs>
<clipPath id="clip0_1_342">
<rect width="20" height="20" fill="white" transform="translate(0 0.5)"/>
</clipPath>
</defs>
</svg>
