<svg width="20" height="21" viewBox="0 0 20 21" fill="none" xmlns="http://www.w3.org/2000/svg">
<path d="M15.3525 8.8092C15.8498 8.8092 16.3267 8.61165 16.6783 8.26002C17.0299 7.90839 17.2275 7.43148 17.2275 6.9342C17.2275 6.43692 17.0299 5.96 16.6783 5.60837C16.3267 5.25674 15.8498 5.0592 15.3525 5.0592C14.8552 5.0592 14.3783 5.25674 14.0267 5.60837C13.675 5.96 13.4775 6.43692 13.4775 6.9342C13.4775 7.43148 13.675 7.90839 14.0267 8.26002C14.3783 8.61165 14.8552 8.8092 15.3525 8.8092ZM4.02582 3.3567C4.15254 3.40441 4.26022 3.49219 4.33249 3.6067L6.45249 6.92837L11.3283 8.7617C11.5317 8.8392 11.7117 8.96753 11.8508 9.1342L15.0675 13.0134C15.1723 13.1398 15.2511 13.2856 15.2996 13.4424C15.348 13.5993 15.3651 13.7642 15.3498 13.9277C15.3345 14.0911 15.2872 14.25 15.2105 14.3952C15.1338 14.5403 15.0293 14.669 14.9029 14.7738C14.7765 14.8786 14.6307 14.9574 14.4738 15.0059C14.317 15.0543 14.1521 15.0714 13.9886 15.0561C13.8251 15.0408 13.6663 14.9935 13.5211 14.9168C13.3759 14.8401 13.2473 14.7356 13.1425 14.6092L10.1383 10.9834L5.18332 9.12253C4.93012 9.02668 4.71489 8.85122 4.56999 8.62253L1.33332 3.5442C1.26389 3.43337 1.23098 3.30355 1.23922 3.17302C1.24746 3.0425 1.29644 2.91785 1.37925 2.81663C1.46207 2.71541 1.57455 2.64272 1.70086 2.60879C1.82717 2.57487 1.96093 2.58142 2.08332 2.62753L4.02582 3.3567Z" stroke="black" stroke-width="1.25" stroke-linecap="round" stroke-linejoin="round"/>
<path d="M7.63583 7.37254L6.75667 9.71337M5.9775 6.1842L3.6775 7.22754M0.625 18.56C1.23342 18.5589 1.83309 18.415 2.37582 18.1401C2.91856 17.8651 3.38922 17.4666 3.75 16.9767C4.1098 17.4677 4.58023 17.867 5.12317 18.1423C5.66611 18.4176 6.26627 18.561 6.875 18.561C7.48373 18.561 8.08389 18.4176 8.62683 18.1423C9.16977 17.867 9.6402 17.4677 10 16.9767C10.3599 17.4676 10.8304 17.8667 11.3733 18.1419C11.9162 18.417 12.5163 18.5604 13.125 18.5604C13.7337 18.5604 14.3338 18.417 14.8767 18.1419C15.4196 17.8667 15.8901 17.4676 16.25 16.9767C16.6108 17.4666 17.0814 17.8651 17.6242 18.1401C18.1669 18.415 18.7666 18.5589 19.375 18.56" stroke="black" stroke-width="1.25" stroke-linecap="round" stroke-linejoin="round"/>
</svg>
