<svg width="20" height="21" viewBox="0 0 20 21" fill="none" xmlns="http://www.w3.org/2000/svg">
<g id="svg1864590514_464" clip-path="url(#clip0_1_250)">
<path id="Vector" d="M17.7083 18.625C17.7083 18.9565 17.5766 19.2745 17.3422 19.5089C17.1078 19.7433 16.7898 19.875 16.4583 19.875H3.95831C3.62679 19.875 3.30885 19.7433 3.07443 19.5089C2.84001 19.2745 2.70831 18.9565 2.70831 18.625V8.625C2.70831 6.63588 3.49849 4.72822 4.90501 3.3217C6.31153 1.91518 8.21919 1.125 10.2083 1.125C12.1974 1.125 14.1051 1.91518 15.5116 3.3217C16.9181 4.72822 17.7083 6.63588 17.7083 8.625V18.625Z" stroke="black" stroke-width="1.25" stroke-linecap="round" stroke-linejoin="round"/>
<path id="Vector_2" d="M2.70831 8.625H17.7083M2.70831 13.625H17.7083M10.2083 8.625V1.125M10.2083 8.625L4.63331 3.6075M10.2083 8.625L15.7833 3.6075M7.70831 8.625V19.875M12.7083 8.625V19.875" stroke="black" stroke-width="1.25" stroke-linecap="round" stroke-linejoin="round"/>
</g>
<defs>
<clipPath id="clip0_1_250">
<rect width="20" height="20" fill="white" transform="translate(0 0.5)"/>
</clipPath>
</defs>
</svg>
