<svg width="20" height="21" viewBox="0 0 20 21" fill="none" xmlns="http://www.w3.org/2000/svg">
<g clip-path="url(#clip0_1_319)">
<path d="M9.58331 5.59333C10.1693 5.65647 10.7393 5.82353 11.2666 6.08666C11.8783 6.40375 12.3798 6.89836 12.7054 7.50557C13.0309 8.11278 13.1653 8.80422 13.0908 9.48916C13.0876 9.5955 13.0565 9.69914 13.0007 9.7897C12.9449 9.88026 12.8662 9.95458 12.7727 10.0052C12.6791 10.0558 12.5739 10.081 12.4675 10.0782C12.3612 10.0754 12.2574 10.0447 12.1666 9.98916L6.87498 6.74999H1.24998C1.14961 6.74504 1.05181 6.71655 0.964482 6.66682C0.877154 6.61709 0.802745 6.54753 0.747264 6.46374C0.691782 6.37995 0.656784 6.28428 0.645096 6.18447C0.633408 6.08466 0.645358 5.9835 0.67998 5.88916C0.933928 5.22345 1.3866 4.65203 1.97653 4.25248C2.56646 3.85293 3.26507 3.64462 3.97748 3.65583C4.74745 3.67694 5.49995 3.89006 6.16665 4.27583" stroke="black" stroke-width="1.25" stroke-linecap="round" stroke-linejoin="round"/>
<path d="M10.72 5.85751L13.4775 4.21584C13.554 4.17174 13.6186 4.10969 13.6657 4.03505C13.7129 3.9604 13.7412 3.87541 13.7481 3.78739C13.7551 3.69938 13.7406 3.61099 13.7057 3.52985C13.6709 3.44872 13.6169 3.37727 13.5483 3.32167C13.0458 2.89515 12.4345 2.6168 11.7829 2.51776C11.1312 2.41872 10.4649 2.50288 9.85831 2.76084C9.31377 3.00533 8.86546 3.42316 8.58331 3.94917" stroke="black" stroke-width="1.25" stroke-linecap="round" stroke-linejoin="round"/>
<path d="M4.9225 3.78251L3.92667 1.93335C3.88058 1.84861 3.85774 1.75319 3.86045 1.65677C3.86316 1.56036 3.89134 1.46637 3.94212 1.38436C3.9929 1.30236 4.06447 1.23524 4.14957 1.18984C4.23467 1.14444 4.33027 1.12236 4.42667 1.12585C5.04219 1.1626 5.65276 1.25832 6.25 1.41168C6.8164 1.61347 7.3253 1.94985 7.73292 2.39187C8.14053 2.83389 8.43466 3.36832 8.59 3.94918M19.375 17.375H11.9858C11.7628 17.3751 11.5437 17.3155 11.3515 17.2023C11.1592 17.0892 11.0008 16.9267 10.8925 16.7317L8.75 12.375M16.8767 17.375L17.5017 19.875M11.3417 17.195L10.0017 19.875M9.6725 14.25H13.75M0.625 19.875C0.7225 18.215 0.7 11.19 6.25 6.75001M6.875 6.75001C5.14443 10.8945 4.4991 15.4118 5 19.875" stroke="black" stroke-width="1.25" stroke-linecap="round" stroke-linejoin="round"/>
</g>
<defs>
<clipPath id="clip0_1_319">
<rect width="20" height="20" fill="white" transform="translate(0 0.5)"/>
</clipPath>
</defs>
</svg>
