<svg width="20" height="21" viewBox="0 0 20 21" fill="none" xmlns="http://www.w3.org/2000/svg">
<g clip-path="url(#clip0_1_243)">
<path d="M19.2196 14.6938C19.1298 14.4421 19.0248 14.1985 18.9251 13.9728C18.7714 13.6257 18.6105 13.2778 18.4548 12.9417L18.4425 12.915C17.0541 9.91183 15.5641 6.86756 14.0136 3.86688L13.9478 3.73948C13.7896 3.43306 13.6261 3.11623 13.4584 2.80491C13.2594 2.41093 13.018 2.03975 12.7383 1.69793C12.4236 1.32282 12.0301 1.02114 11.5856 0.814158C11.1412 0.607178 10.6566 0.499939 10.1661 0.5C9.67565 0.500062 9.19106 0.607423 8.74665 0.814515C8.30234 1.02161 7.90891 1.32339 7.59426 1.69857C7.31496 2.04048 7.07366 2.41158 6.87463 2.80536C6.70538 3.11947 6.54035 3.43923 6.38077 3.74848L6.31965 3.86685C4.76917 6.86775 3.27908 9.912 1.8908 12.9149L1.87056 12.9586C1.7176 13.2893 1.55945 13.6313 1.40835 13.9727C1.3085 14.1982 1.20371 14.4416 1.11384 14.6939C0.856405 15.3815 0.774372 16.1221 0.875113 16.8491C0.981947 17.5838 1.27942 18.2779 1.73807 18.8628C2.19672 19.4476 2.80064 19.9028 3.49 20.1833C4.0107 20.3937 4.56744 20.5013 5.12928 20.5C5.30576 20.4999 5.4821 20.4897 5.65741 20.4693C6.368 20.3788 7.05335 20.1478 7.67322 19.7899C8.48631 19.3336 9.2894 18.6648 10.1666 17.7093C11.0439 18.6648 11.847 19.3336 12.6601 19.7899C13.2799 20.1479 13.9653 20.3788 14.6759 20.4693C14.8511 20.4897 15.0276 20.4999 15.2041 20.5C15.7658 20.5013 16.3225 20.3937 16.8432 20.1833C17.5326 19.9028 18.1366 19.4476 18.5952 18.8628C19.0539 18.2779 19.3514 17.5838 19.4582 16.8491C19.5589 16.122 19.4768 15.3814 19.2196 14.6938ZM10.1666 15.7356C9.08065 14.3606 8.38381 13.0836 8.13929 12.0131C8.03911 11.612 8.01546 11.1957 8.06959 10.7858C8.11232 10.4853 8.22281 10.1985 8.39273 9.94675C8.60181 9.67583 8.87056 9.4565 9.17815 9.30558C9.48573 9.15467 9.82398 9.07617 10.1668 9.07617C10.5096 9.07625 10.8478 9.15475 11.1554 9.30575C11.463 9.45667 11.7316 9.67608 11.9407 9.94692C12.1106 10.1988 12.2211 10.4857 12.2639 10.7862C12.3179 11.1963 12.2941 11.6127 12.1938 12.0139C11.9491 13.0843 11.2524 14.3608 10.1666 15.7356ZM18.1898 16.6681C18.1151 17.1817 17.9071 17.6671 17.5864 18.076C17.2657 18.4849 16.8435 18.8033 16.3614 18.9993C15.8741 19.1944 15.3451 19.2636 14.8238 19.2003C14.2819 19.1306 13.7596 18.9524 13.2885 18.6765C12.5647 18.2703 11.8321 17.6467 11.0076 16.732C12.3201 15.1153 13.1396 13.6253 13.4431 12.2981C13.5797 11.74 13.6093 11.1612 13.5304 10.5922C13.4588 10.102 13.2766 9.63433 12.9976 9.22458C12.6706 8.78243 12.2442 8.423 11.7526 8.17531C11.2608 7.92763 10.7176 7.79856 10.1668 7.79856C9.6159 7.79856 9.07273 7.92756 8.58098 8.17518C8.0893 8.42281 7.66284 8.78218 7.33592 9.22433C7.05691 9.634 6.87475 10.1015 6.8031 10.5916C6.72416 11.1603 6.75361 11.7388 6.88989 12.2968C7.19315 13.6246 8.01277 15.115 9.32565 16.7321C8.50123 17.6468 7.76857 18.2703 7.04479 18.6766C6.57365 18.9524 6.05146 19.1306 5.50955 19.2003C4.98818 19.2636 4.45924 19.1944 3.97181 18.9993C3.4898 18.8033 3.06754 18.4849 2.74685 18.0761C2.42618 17.6671 2.2182 17.1817 2.14354 16.6681C2.07172 16.1458 2.13284 15.6141 2.32127 15.1216C2.3929 14.9205 2.47672 14.7231 2.58056 14.4886C2.72747 14.1568 2.88337 13.8197 3.03417 13.4936L3.05442 13.4498C4.43495 10.4637 5.91678 7.43638 7.45881 4.45183L7.52018 4.33302C7.67716 4.02876 7.83953 3.71417 8.00333 3.41018C8.16 3.09688 8.34965 2.80107 8.56906 2.52775C8.76348 2.29314 9.00748 2.10426 9.28356 1.97458C9.55973 1.84491 9.86123 1.77766 10.1664 1.77763C10.4716 1.77761 10.7731 1.84482 11.0492 1.97444C11.3254 2.10407 11.5694 2.29292 11.7639 2.52749C11.9834 2.80061 12.1731 3.09632 12.3296 3.40961C12.492 3.71088 12.6529 4.02264 12.8086 4.32411L12.8745 4.45197C14.4165 7.43618 15.8982 10.4634 17.2789 13.4501L17.2914 13.4769C17.4448 13.8085 17.6034 14.1512 17.7527 14.4888C17.8567 14.7236 17.9407 14.9211 18.0121 15.1215C18.2005 15.614 18.2616 16.1458 18.1898 16.6681Z" fill="#121212"/>
</g>
<defs>
<clipPath id="clip0_1_243">
<rect width="20" height="20" fill="white" transform="translate(0 0.5)"/>
</clipPath>
</defs>
</svg>
