<svg width="20" height="21" viewBox="0 0 20 21" fill="none" xmlns="http://www.w3.org/2000/svg">
<g clip-path="url(#clip0_1_311)">
<path d="M2.49999 19.875C2.28976 19.8751 2.08291 19.8221 1.89857 19.7211C1.71424 19.62 1.55837 19.4741 1.44538 19.2968C1.3324 19.1195 1.26595 18.9166 1.25219 18.7068C1.23843 18.4971 1.2778 18.2872 1.36666 18.0967L8.86666 1.84667C8.96721 1.63101 9.12723 1.44852 9.32791 1.32066C9.5286 1.1928 9.76162 1.12488 9.99957 1.12488C10.2375 1.12488 10.4705 1.1928 10.6712 1.32066C10.8719 1.44852 11.0319 1.63101 11.1325 1.84667L18.6325 18.0967C18.7213 18.2872 18.7607 18.4971 18.747 18.7068C18.7332 18.9166 18.6667 19.1195 18.5538 19.2968C18.4408 19.4741 18.2849 19.62 18.1006 19.7211C17.9162 19.8221 17.7094 19.8751 17.4992 19.875H2.49999Z" stroke="black" stroke-width="1.25" stroke-linecap="round" stroke-linejoin="round"/>
<path d="M6.25 19.875H13.75L11.1183 13.0658C11.0146 12.8581 10.855 12.6833 10.6574 12.5611C10.4599 12.439 10.2323 12.3743 10 12.3743C9.76775 12.3743 9.54009 12.439 9.34255 12.5611C9.14502 12.6833 8.98542 12.8581 8.88167 13.0658L6.25 19.875Z" stroke="black" stroke-width="1.25" stroke-linecap="round" stroke-linejoin="round"/>
<path d="M6.87502 6.125H13.0467M5.16168 9.875H14.8383M10 12.375V19.875" stroke="black" stroke-width="1.25" stroke-linecap="round" stroke-linejoin="round"/>
</g>
<defs>
<clipPath id="clip0_1_311">
<rect width="20" height="20" fill="white" transform="translate(0 0.5)"/>
</clipPath>
</defs>
</svg>
