<svg width="20" height="21" viewBox="0 0 20 21" fill="none" xmlns="http://www.w3.org/2000/svg">
<path d="M0.625 4.25H18.75C18.9158 4.25 19.0747 4.31585 19.1919 4.43306C19.3092 4.55027 19.375 4.70924 19.375 4.875V8C19.375 8.33152 19.2433 8.64946 19.0089 8.88388C18.7745 9.1183 18.4565 9.25 18.125 9.25H8.125C7.79348 9.25 7.47554 9.1183 7.24112 8.88388C7.0067 8.64946 6.875 8.33152 6.875 8V4.25M8.125 13V14.25M10.625 14.25V11.75M13.125 13V14.25M18.125 13V14.25M15.625 14.25V11.75M6.875 16.75H19.375" stroke="black" stroke-width="1.25" stroke-linecap="round" stroke-linejoin="round"/>
</svg>
